# xmcd
#
# Track frame offsets: 
#        150
#        1203
#        10363
#        12451
#        22204
#        34124
#        34448
#        47213
#        47590
#        49728
#        57177
#        57493
#        68372
#        69449
#        70539
#        79060
#        80856
#        89411
#
# Disc length: 1231 seconds
#
# Revision: 0
# Processed by: cddbd v1.5.2PL0 Copyright (c) Steve Scherf et al.
# Submitted via: ExactAudioCopy v0.95b3
#
DISCID=f004cd12
DTITLE=The Beatles  - Way Beyond Compare - Episode 24 Pop Go The Beatl
DTITLE=es 8 and 9 (16 July 1963)  FLAC
DYEAR=1900
DGENRE=
TTITLE0=Let's Pop..._ [BBC-Radio]
TTITLE1=I'm Gonna Sit Right Down And Cry (Over You) [BBC-Radio]
TTITLE2=Please Make George Sing..._ [BBC-Radio]
TTITLE3=Crying, Waiting, Hoping [BBC-Radio]
TTITLE4=Kansas City - Hey!-Hey!-Hey!-Hey! [BBC-Radio]
TTITLE5=A Very Romantic Title..._ [BBC-Radio]
TTITLE6=To Know Her Is To Love Her [BBC-Radio]
TTITLE7=Do You Remember The Teddy Bears' Version...__ [BBC-Radio]
TTITLE8=I've Got A Terrible Nose..._ [BBC-Radio]
TTITLE9=The Honeymoon Song [BBC-Radio]
TTITLE10=Intro... [BBC-Radio]
TTITLE11=Twist And Shout [BBC-Radio]
TTITLE12=That's It Again..._ [BBC-Radio]
TTITLE13=Straight Away, Here's Paul..._ [BBC-Radio]
TTITLE14=Long Tall Sally [BBC-Radio]
TTITLE15=Pally Sally..._ [BBC-Radio]
TTITLE16=Please Please Me [BBC-Radio]
TTITLE17=What Kind Of Fool Am I_..._ [BBC-Radio]
EXTD=
EXTT0=
EXTT1=
EXTT2=
EXTT3=
EXTT4=
EXTT5=
EXTT6=
EXTT7=
EXTT8=
EXTT9=
EXTT10=
EXTT11=
EXTT12=
EXTT13=
EXTT14=
EXTT15=
EXTT16=
EXTT17=
PLAYORDER=
